<?xml version="1.0" encoding="UTF-8" standalone="no"?> <svg xmlns="http://www.w3.org/2000/svg" xmlns:xlink="http://www.w3.org/1999/xlink" viewBox="0 0 64 64"><defs><style>.cls-1{fill:url(#linear-gradient);}.cls-2{fill:#fff;}</style><linearGradient id="linear-gradient" x1="3.25" y1="32" x2="60.75" y2="32" gradientUnits="userSpaceOnUse"><stop offset="0" stop-color="#5bb4f6"/><stop offset="0.61" stop-color="#2191e5"/><stop offset="1" stop-color="#007edb"/></linearGradient></defs><g id="Layer_26" data-name="Layer 26"><circle class="cls-1" cx="32" cy="32" r="28.75"/><path class="cls-2" d="M48.57,14.68H15.43a.74.74,0,0,0-.75.75V19a.75.75,0,0,0,1.5,0V16.18H47.82v7.1H40.39a.75.75,0,0,0-.75.75v8.85H35.58V19.53a.75.75,0,0,0-.75-.75h-9.3a.75.75,0,0,0,0,1.5h8.55V33.63a.75.75,0,0,0,.75.75h5.56a.75.75,0,0,0,.75-.75V24.78h6.68v23H43.46v-11a.75.75,0,0,0-.75-.75H37.38a.76.76,0,0,0-.75.75v5H30.56V35.21a.76.76,0,0,0-.75-.75h-5.4a.75.75,0,0,0,0,1.5h4.65v6.53a.75.75,0,0,0,.75.75h7.57a.75.75,0,0,0,.75-.75v-5H42v11a.75.75,0,0,0,.75.75h5.86a.74.74,0,0,0,.75-.75V15.43A.74.74,0,0,0,48.57,14.68Z"/><path class="cls-2" d="M37.39,47.82H25.16V40.16a.76.76,0,0,0-.75-.75H20.35V28.61a.75.75,0,0,0-1.5,0V40.16a.76.76,0,0,0,.75.75h4.06v6.91H16.18V25.08h9.35a.75.75,0,0,0,0-1.5H20.91v-4a.75.75,0,0,0-1.5,0v4h-4a.75.75,0,0,0-.75.75V48.57a.74.74,0,0,0,.75.75h22a.75.75,0,0,0,0-1.5Z"/><path class="cls-2" d="M24.41,30.26a.75.75,0,0,0,.75.75h5.25a.76.76,0,0,0,.75-.75v-6.6a.75.75,0,0,0-1.5,0v5.85h-4.5A.74.74,0,0,0,24.41,30.26Z"/></g></svg>